<svg version="1.1" id="Layer_1" xmlns="http://www.w3.org/2000/svg" xmlns:xlink="http://www.w3.org/1999/xlink" x="0px" y="0px"
	 width="100%" viewBox="0 0 288 128" enable-background="new 0 0 288 128" xml:space="preserve">
<path fill="#000000" opacity="1.000000" stroke="none" 
	d="
M43.915699,110.168877 
	C30.122761,99.573166 23.748749,85.704361 23.756237,68.825584 
	C23.757912,65.053871 23.896015,62.144203 18.599546,61.931702 
	C14.441066,61.764862 12.271219,58.153645 12.278877,54.154354 
	C12.287193,49.810818 15.077801,46.197514 19.232386,46.420082 
	C26.180138,46.792282 28.405878,42.591682 31.319393,37.667179 
	C38.272705,25.914501 48.975990,18.860140 62.085693,15.418024 
	C82.010620,10.186487 100.407440,13.302049 116.852570,25.963797 
	C124.166046,31.594734 128.871414,39.212765 132.098633,48.422432 
	C141.060379,45.310379 149.998917,44.177742 158.902451,48.786808 
	C162.512589,42.210300 164.916138,35.532558 169.975555,30.529991 
	C186.673035,14.020082 206.626816,9.899297 228.926697,15.307188 
	C243.572769,18.858971 255.054489,26.962093 262.071899,40.497356 
	C264.075653,44.362267 266.154144,46.430378 270.734955,46.155140 
	C274.417969,45.933849 277.627411,47.604671 278.978424,51.431503 
	C280.649689,56.165485 277.876434,61.477322 272.771942,61.963600 
	C268.435089,62.376743 268.251831,64.539162 268.167145,67.865082 
	C267.887085,78.862999 265.645569,89.333755 259.183960,98.563347 
	C246.884857,116.131035 222.921265,124.764931 200.062912,119.817177 
	C170.414597,113.399719 154.089737,90.759171 157.555374,60.558582 
	C158.036087,56.369423 156.635696,54.180599 152.693680,53.429230 
	C150.412292,52.994381 148.097382,52.443523 145.798019,52.445724 
	C136.175659,52.454933 134.220840,54.406429 134.444839,63.856976 
	C134.738800,76.259003 133.324707,88.298653 125.652176,98.540474 
	C110.839256,118.313812 90.494232,123.588158 67.089462,119.861473 
	C58.778278,118.538101 51.039127,115.460541 43.915699,110.168877 
M162.316559,72.078377 
	C163.104446,77.856003 164.044571,83.554604 166.587646,88.930603 
	C180.581497,118.513359 217.704102,120.937843 238.656738,109.793434 
	C263.014923,96.837677 267.316467,69.848618 259.761108,48.389835 
	C253.365646,30.225410 238.926651,21.322521 220.463898,18.726624 
	C198.134521,15.587070 173.104767,25.221092 164.688217,49.946846 
	C162.337814,56.851788 162.037048,63.969746 162.316559,72.078377 
M120.305473,37.198181 
	C108.844200,22.458523 93.125671,17.125950 75.293892,18.370222 
	C33.750004,21.269085 19.853460,59.092339 33.714119,89.507698 
	C43.119965,110.147568 61.779613,116.930702 83.379738,115.657242 
	C101.931366,114.563507 117.153297,106.510040 124.880165,89.084686 
	C132.587189,71.704102 131.777237,54.101227 120.305473,37.198181 
z"/>
</svg>