<svg version="1.1" id="Layer_1" xmlns="http://www.w3.org/2000/svg" xmlns:xlink="http://www.w3.org/1999/xlink" x="0px" y="0px"
	 width="100%" viewBox="0 0 288 128" enable-background="new 0 0 288 128" xml:space="preserve">
<path fill="#000000" opacity="1.000000" stroke="none" 
	d="
M206.085709,104.087708 
	C201.447647,103.773598 197.293060,103.504135 193.144775,103.158768 
	C183.250000,102.334953 175.507553,98.032204 169.901276,89.600685 
	C164.132294,80.924507 159.932693,71.564247 156.337219,61.860207 
	C155.241699,58.903423 154.200882,55.851482 152.579788,53.180035 
	C149.294785,47.766579 144.601379,47.836781 141.230301,53.164558 
	C138.988632,56.707382 137.703598,60.681850 136.350220,64.625984 
	C133.310532,73.484428 129.161957,81.783211 124.028290,89.641632 
	C118.596649,97.956184 110.878922,102.042976 101.235809,103.131531 
	C83.877556,105.090988 66.646774,103.964279 49.512856,100.969559 
	C40.072254,99.319496 34.401440,93.057686 30.773527,84.647522 
	C27.511652,77.085907 26.122566,69.020081 25.027414,60.945240 
	C24.339642,55.874119 22.136581,52.283600 17.584661,49.926346 
	C13.294550,47.704666 11.598301,42.584393 13.332896,38.131557 
	C13.889238,36.703392 14.926383,36.107506 16.326450,35.853863 
	C41.899113,31.220993 67.492699,26.964003 93.650017,27.608046 
	C106.390198,27.921732 118.141678,31.547663 129.843704,36.209480 
	C140.828018,40.585381 152.733627,41.099789 163.318329,36.281673 
	C182.449493,27.573246 202.215454,26.704277 222.492111,28.191288 
	C240.276306,29.495508 257.867126,32.243145 275.370575,35.587433 
	C277.416718,35.978382 280.445007,35.599144 280.328217,38.530109 
	C280.187164,42.069176 282.509308,46.886745 277.968536,48.887146 
	C271.170288,51.882076 268.960266,57.110222 268.383179,63.876263 
	C267.916016,69.353569 266.431519,74.643776 264.850830,79.929504 
	C260.674164,93.896263 251.504623,101.119057 236.952515,102.242531 
	C226.830536,103.023987 216.753326,104.337303 206.085709,104.087708 
M260.637695,41.964966 
	C259.001648,40.071793 256.689270,39.612064 254.430771,39.048820 
	C232.368698,33.546753 210.030838,32.993534 187.570892,35.616238 
	C180.587845,36.431671 173.907059,38.620789 168.022583,42.647030 
	C162.331009,46.541302 160.800186,50.286770 162.703491,56.772453 
	C165.754410,67.168640 169.776428,77.150650 175.587448,86.408508 
	C178.859268,91.621056 183.224518,94.598145 189.187653,95.424263 
	C206.270920,97.790901 223.304733,97.945816 240.303772,94.529091 
	C246.943512,93.194550 251.893768,89.922371 254.964340,83.773315 
	C258.251312,77.190956 261.344208,70.417366 262.319244,63.187073 
	C263.235596,56.391636 264.372833,49.274097 260.637695,41.964966 
M130.076965,60.577057 
	C133.490280,48.771088 131.449524,44.403740 120.118202,39.475780 
	C116.757072,38.014030 113.324600,36.767029 109.655037,36.222343 
	C86.000473,32.711231 62.526592,33.441944 39.256531,39.129768 
	C33.032253,40.651146 31.787291,42.226521 31.207251,48.715656 
	C30.168531,60.336201 32.941189,71.156944 37.733746,81.636185 
	C41.192230,89.198372 46.743156,93.434906 55.066204,94.893318 
	C70.478127,97.593887 85.823105,97.436768 101.330849,95.939278 
	C110.242722,95.078720 116.112938,90.939072 120.205444,83.270210 
	C123.982452,76.192528 127.215050,68.911949 130.076965,60.577057 
z"/>
</svg>