<svg version="1.1" id="Layer_1" xmlns="http://www.w3.org/2000/svg" xmlns:xlink="http://www.w3.org/1999/xlink" x="0px" y="0px"
	 width="100%" viewBox="0 0 288 128" enable-background="new 0 0 288 128" xml:space="preserve">
<path fill="#000000" opacity="1.000000" stroke="none" 
	d="
M211.310760,113.994370 
	C203.542892,113.205482 196.374054,111.947395 189.420776,109.413307 
	C176.319733,104.638672 167.739441,95.563721 163.088455,82.565872 
	C161.407547,77.868340 160.540283,72.866356 158.107193,68.456856 
	C155.344193,63.449459 151.701187,59.225899 145.432755,59.317165 
	C139.256119,59.407097 135.370056,63.323082 132.848511,68.565453 
	C131.485397,71.399414 130.475754,74.431633 129.571976,77.453766 
	C123.096977,99.105385 109.054832,110.698776 86.500389,113.257423 
	C75.119171,114.548546 63.875305,115.277748 53.359703,109.483459 
	C38.218925,101.140594 31.982075,86.777405 27.858170,71.141739 
	C25.821680,63.420441 24.295725,55.556904 23.707031,47.561943 
	C23.380470,43.126957 19.878639,42.666172 16.851059,42.604847 
	C12.510859,42.516945 11.484779,40.505791 11.677057,36.672325 
	C12.184524,26.554934 8.764104,25.819056 22.955296,24.591637 
	C40.250000,23.095791 57.536880,22.442823 74.848572,22.983965 
	C88.840141,23.421328 102.782761,24.731083 115.940979,30.219116 
	C120.746529,32.223415 125.323265,34.525486 128.749130,38.630821 
	C130.577194,40.821453 133.046021,41.713516 135.834213,41.751419 
	C139.165710,41.796711 142.512299,41.584194 145.827209,41.826889 
	C153.547241,42.392094 159.970596,40.987797 166.245438,35.290218 
	C174.035629,28.216717 184.720551,26.392706 194.989670,24.897800 
	C221.392517,21.054266 247.811981,23.153000 274.223480,25.012384 
	C277.936279,25.273767 279.669922,26.961620 279.308380,30.761023 
	C279.151245,32.412289 279.125580,34.107574 279.307037,35.753437 
	C279.787994,40.115738 278.684845,42.691982 273.551697,42.676289 
	C269.604065,42.664215 267.564606,44.846581 267.102081,49.272163 
	C265.696350,62.722488 263.105255,75.960045 257.079651,88.246086 
	C247.837906,107.089722 232.832031,115.901421 211.310760,113.994370 
M90.201599,36.280098 
	C78.966057,34.879230 67.765839,33.700245 56.392124,35.221020 
	C40.660843,37.324444 32.710320,47.288113 34.919476,62.772678 
	C35.060333,63.759983 35.055866,64.767792 35.191471,65.756119 
	C36.617889,76.152374 40.115578,85.718338 46.258797,94.319931 
	C60.862511,114.767708 103.524727,108.603386 114.263725,91.710220 
	C118.553146,84.962669 120.753807,77.549278 122.117264,69.775162 
	C124.045448,58.781124 119.731880,49.072048 110.191444,43.379208 
	C104.261520,39.840790 97.841431,37.606525 90.201599,36.280098 
M170.161942,75.428543 
	C173.620880,92.776840 184.120651,102.812134 201.512360,105.880730 
	C207.959366,107.018242 214.417969,107.360626 220.900986,106.816956 
	C228.957291,106.141357 236.063156,103.119118 241.765900,97.261513 
	C251.317612,87.450401 254.873535,75.211647 256.178772,61.963585 
	C257.605316,47.484497 252.030334,38.829376 237.696320,35.973183 
	C220.901367,32.626625 204.164505,34.103691 188.049576,39.842617 
	C172.779663,45.280609 164.945129,57.738483 170.161942,75.428543 
z"/>
</svg>