<svg version="1.1" id="Layer_1" xmlns="http://www.w3.org/2000/svg" xmlns:xlink="http://www.w3.org/1999/xlink" x="0px" y="0px"
	 width="100%" viewBox="0 0 288 112" enable-background="new 0 0 288 112" xml:space="preserve">
<path fill="#000000" opacity="1.000000" stroke="none" 
	d="
M74.640060,103.054169 
	C46.616589,104.573448 21.955036,83.326553 18.416040,60.362782 
	C18.073919,58.142834 17.294563,56.418785 14.575720,55.859505 
	C11.085778,55.141605 8.974549,52.668701 9.410622,48.995338 
	C9.821367,45.535313 12.271190,43.824512 15.708537,43.826138 
	C18.023941,43.827229 19.304848,42.883896 20.184750,40.711720 
	C23.410686,32.747986 29.374258,27.126568 36.925392,23.588802 
	C59.175343,13.164524 81.747017,13.274043 104.116035,23.140869 
	C112.382416,26.787117 118.784874,32.889584 122.545197,42.287388 
	C127.533051,35.001839 134.070602,31.280302 142.338165,31.147175 
	C150.704956,31.012449 157.537857,34.308323 162.714584,41.680294 
	C166.404480,36.410069 169.213989,31.033628 174.280243,27.624136 
	C192.613342,15.286308 212.675644,13.684157 233.655289,18.229750 
	C243.405731,20.342344 252.462402,24.022167 259.440369,31.527668 
	C261.236969,33.460129 262.872437,35.639759 264.131622,37.951153 
	C265.913330,41.221779 267.314270,44.290562 271.990143,44.305393 
	C274.685455,44.313942 276.220367,46.753712 276.281616,49.608337 
	C276.346924,52.651711 274.861328,54.932354 271.963348,55.558235 
	C268.966095,56.205555 268.033447,57.965721 267.453857,60.652916 
	C259.458099,97.724892 215.141205,115.219345 184.410202,93.335602 
	C170.881363,83.701630 162.295715,71.114899 161.523819,53.811890 
	C161.032852,42.806061 153.310822,36.094707 142.489380,36.173485 
	C132.145203,36.248783 125.141312,42.995457 124.371399,53.626080 
	C122.582321,78.328903 103.210594,98.962837 78.545578,102.444359 
	C77.392044,102.607178 76.245201,102.817436 74.640060,103.054169 
M31.729082,34.231495 
	C24.265030,41.870510 22.740963,51.111290 24.918396,61.100983 
	C29.175501,80.631844 49.411289,97.257607 69.205414,97.745857 
	C90.224640,98.264343 111.185226,82.956108 116.636894,63.105045 
	C120.758171,48.098320 115.804398,35.926830 102.211815,28.407646 
	C82.365273,17.428879 47.463047,19.131256 31.729082,34.231495 
M217.349747,21.371380 
	C206.209137,21.042057 195.414810,22.713942 185.283707,27.486706 
	C170.651123,34.380123 164.319046,48.757908 169.168732,63.588882 
	C175.477005,82.880547 194.719162,97.539665 214.008591,97.748947 
	C234.033279,97.966209 253.124802,84.193527 259.998718,64.571548 
	C265.015717,50.250168 260.399231,37.087250 247.379883,29.252758 
	C238.465042,23.888178 228.539322,21.952494 217.349747,21.371380 
z"/>
</svg>