<svg version="1.1" id="Layer_1" xmlns="http://www.w3.org/2000/svg" xmlns:xlink="http://www.w3.org/1999/xlink" x="0px" y="0px"
	 width="100%" viewBox="0 0 288 128" enable-background="new 0 0 288 128" xml:space="preserve">
<path fill="#000000" opacity="1.000000" stroke="none" 
	d="
M209.190094,116.024734 
	C203.251083,115.461655 197.774185,115.034149 192.329208,114.351929 
	C176.942291,112.424034 167.941620,103.231171 163.728836,88.792313 
	C161.024811,79.524529 158.595428,70.174484 155.765060,60.946556 
	C154.243607,55.986103 152.380951,50.836708 146.082901,50.191330 
	C141.847610,49.757324 137.882492,53.990345 135.832031,60.976395 
	C133.441544,69.120934 130.959106,77.260460 129.091583,85.531990 
	C125.119720,103.123985 114.477898,113.053711 96.509178,114.983757 
	C81.876831,116.555428 67.261421,116.562462 52.684608,114.295753 
	C43.098076,112.805031 36.837158,107.625725 33.398125,98.370377 
	C29.076994,86.741058 27.718554,74.408508 24.144604,62.616348 
	C22.614346,57.567299 20.897272,53.002728 16.136602,49.900620 
	C12.138797,47.295593 12.068823,42.867512 12.684964,38.607094 
	C13.277706,34.508472 16.435379,32.824768 19.963417,31.985992 
	C42.720963,26.575487 65.650414,23.179504 89.203545,24.443026 
	C107.525055,25.425892 125.667717,27.484150 143.747147,30.466957 
	C149.267319,31.377693 154.649734,29.356775 160.038971,28.525391 
	C175.696976,26.109859 191.441071,24.627016 207.239243,24.184631 
	C229.336563,23.565857 251.045837,26.863487 272.464172,32.165302 
	C275.967834,33.032585 278.560028,35.040207 279.220001,38.719711 
	C279.996002,43.046078 279.489227,47.512920 275.598145,49.964352 
	C270.176788,53.379894 268.673035,58.607517 267.314545,64.144737 
	C264.975647,73.678169 262.756714,83.243240 260.261108,92.735527 
	C256.278015,107.885651 249.617493,113.692078 234.118439,115.093422 
	C226.003464,115.827133 217.846451,116.501076 209.190094,116.024734 
M169.498703,73.961327 
	C170.113770,76.722137 170.721802,79.484535 171.345047,82.243507 
	C175.436508,100.355568 181.057968,105.935806 199.331818,108.301437 
	C210.571548,109.756477 222.021149,109.962471 233.254730,108.464851 
	C242.331772,107.254738 249.243332,102.590210 251.862732,92.784576 
	C255.187759,80.337418 256.954926,67.719109 257.974792,54.913502 
	C258.914398,43.116417 257.152313,40.136707 245.728302,37.347927 
	C230.341705,33.591816 214.680801,33.593025 199.026230,34.677383 
	C190.741440,35.251247 182.442719,36.170628 174.555267,39.194756 
	C169.649368,41.075718 167.114395,44.279366 167.135635,49.751274 
	C167.166183,57.621826 168.510376,65.331360 169.498703,73.961327 
M49.355675,105.194984 
	C52.342972,107.130409 55.628422,108.407227 59.146793,108.638985 
	C71.951096,109.482430 84.787483,109.708870 97.466614,107.493683 
	C106.152481,105.976151 113.299370,102.186020 116.937492,93.126785 
	C122.756027,78.638145 124.112816,63.503208 124.578491,48.182617 
	C124.688194,44.573296 122.797165,41.741558 119.435570,40.294102 
	C116.701942,39.117031 113.863571,38.066711 110.970634,37.395565 
	C95.596199,33.828777 79.962097,33.573784 64.332207,34.547626 
	C56.233322,35.052238 48.107929,36.082352 40.426144,39.150887 
	C35.728535,41.027374 33.053703,44.274509 33.385418,49.430973 
	C34.347137,64.380768 36.128788,79.200844 40.281399,93.671928 
	C41.690018,98.580688 44.112957,102.464699 49.355675,105.194984 
z"/>
</svg>