<svg version="1.1" id="Layer_1" xmlns="http://www.w3.org/2000/svg" xmlns:xlink="http://www.w3.org/1999/xlink" x="0px" y="0px"
	 width="100%" viewBox="0 0 288 128" enable-background="new 0 0 288 128" xml:space="preserve">
<path fill="#000000" opacity="1.000000" stroke="none" 
	d="
M38.301804,100.740807 
	C25.495577,89.203583 21.130533,74.495995 20.970238,58.282776 
	C20.927042,53.913761 20.159521,50.980145 15.825563,49.320244 
	C10.776008,47.386269 12.598598,42.852867 12.921278,39.355827 
	C13.223134,36.084469 16.534103,36.863346 18.621050,37.038666 
	C23.854511,37.478306 27.370129,35.635677 31.027128,31.618025 
	C39.807369,21.971872 51.821350,18.972960 64.354561,17.733887 
	C83.624336,15.828815 101.067856,20.227581 116.030724,32.902027 
	C118.269882,34.798733 119.950279,34.297489 122.259407,33.053539 
	C138.137787,24.499653 154.110367,24.497221 169.917053,33.218575 
	C172.412598,34.595497 173.999191,34.357983 176.099426,32.630264 
	C195.336548,16.805218 217.306458,14.344694 240.661560,20.131578 
	C249.674759,22.364855 257.867340,26.582901 263.493958,34.449020 
	C265.955414,37.890171 269.459320,36.539764 272.625763,36.978966 
	C274.990845,37.307018 278.684814,35.473686 279.147308,39.487873 
	C279.588989,43.321297 281.113373,48.083611 275.235901,49.776794 
	C271.608368,50.821804 271.000305,53.272179 271.069550,56.936405 
	C271.749542,92.927795 247.795197,114.043976 215.602661,115.709282 
	C189.284271,117.070724 163.777130,94.523590 163.683258,66.354225 
	C163.658585,58.953403 164.280930,51.682129 166.827271,44.731377 
	C168.009247,41.504913 166.969315,39.723816 164.284256,38.219021 
	C152.242401,31.470381 140.173737,31.683468 128.010651,37.895706 
	C124.802963,39.534016 124.083244,41.581654 125.222435,45.176208 
	C129.920761,60.001118 129.876495,74.537125 122.465637,88.767281 
	C111.944870,108.969002 85.555023,120.415779 63.676315,114.010361 
	C54.425117,111.301895 46.069061,106.994926 38.301804,100.740807 
M261.570984,76.093651 
	C263.459808,71.218590 263.954254,66.063889 264.371826,60.935947 
	C265.407379,48.219131 258.088196,34.816364 246.498520,29.353567 
	C228.353027,20.800688 210.145004,21.039812 191.486252,28.750141 
	C168.326904,38.320248 163.913681,71.721855 174.647095,87.261322 
	C185.437393,102.883148 200.107040,111.764481 219.121933,109.361816 
	C238.949677,106.856438 254.499390,97.071602 261.570984,76.093651 
M51.970680,26.411873 
	C39.630589,30.757317 30.546989,38.677486 28.610270,51.926178 
	C25.627848,72.328285 32.371601,91.895973 52.705837,102.970413 
	C68.623505,111.639496 84.834618,112.654160 100.693237,103.237823 
	C116.267365,93.990410 124.755188,80.388306 122.669655,61.736073 
	C121.071800,47.445492 115.217407,35.848820 101.316734,29.180384 
	C85.383606,21.536936 69.261215,21.616297 51.970680,26.411873 
z"/>
</svg>