<svg version="1.1" id="Layer_1" xmlns="http://www.w3.org/2000/svg" xmlns:xlink="http://www.w3.org/1999/xlink" x="0px" y="0px"
	 width="100%" viewBox="0 0 288 112" enable-background="new 0 0 288 112" xml:space="preserve">
<path fill="#000000" opacity="1.000000" stroke="none" 
	d="
M68.969978,108.157425 
	C44.192146,107.838318 25.425423,91.353676 19.804371,65.287964 
	C19.175972,62.373978 18.847454,59.381741 18.574715,56.407921 
	C18.192137,52.236477 17.622288,48.552315 12.214321,47.955303 
	C8.982978,47.598576 8.843575,44.764091 9.082050,42.109547 
	C9.348911,39.139034 11.477763,38.938629 13.777024,38.869698 
	C16.194708,38.797215 18.842075,39.398983 19.916910,36.047997 
	C24.838930,20.702742 37.182995,14.724428 51.524261,11.916567 
	C64.687416,9.339366 78.016678,9.104878 91.256943,11.763110 
	C103.183006,14.157495 113.705978,19.127913 121.352188,29.008743 
	C122.817833,30.902735 124.060600,32.164730 126.655853,30.543179 
	C138.465103,23.164581 150.022476,24.406534 161.768723,32.204536 
	C165.560699,27.295282 169.637924,22.575401 175.071716,19.222328 
	C184.403595,13.463837 194.632675,10.776625 205.423172,10.314161 
	C220.303894,9.676398 235.094070,10.106525 248.921555,16.793402 
	C256.607727,20.510389 262.288635,26.162504 265.215332,34.225967 
	C266.397461,37.482868 267.990448,39.300037 271.687592,38.906746 
	C274.092865,38.650890 276.516663,38.903236 276.800629,42.183048 
	C277.077942,45.385532 276.214905,47.825127 272.557953,48.299778 
	C269.136597,48.743858 268.043762,50.721722 267.827118,54.098919 
	C267.089172,65.601562 263.875061,76.480415 257.363922,86.020325 
	C245.653702,103.177780 229.313034,110.691032 208.661224,107.315147 
	C184.411148,103.351067 166.144943,91.447868 157.968903,67.080978 
	C157.083649,64.442657 156.636948,61.657185 155.927597,58.692329 
	C155.558334,59.197865 155.303345,59.394379 155.260056,59.629803 
	C154.826584,61.988312 157.167664,65.596458 153.205597,66.346107 
	C149.688766,67.011528 148.701233,63.462513 147.529388,61.008602 
	C146.005600,57.817650 145.114395,54.389164 146.269699,50.836136 
	C147.328400,47.580299 149.350830,44.984901 153.041077,45.322243 
	C156.680069,45.654900 155.102356,49.137157 155.848511,51.354218 
	C156.922318,47.788284 157.093262,44.120686 158.417084,40.719311 
	C159.060593,39.065899 157.973068,37.947826 156.857834,36.832272 
	C149.765091,29.737400 136.121735,29.672535 129.101166,36.679832 
	C127.660278,38.118000 127.086288,39.607601 127.608055,41.611534 
	C128.391785,44.621544 129.044922,47.665554 130.096191,52.159794 
	C130.265549,48.552876 129.472672,45.553757 132.668365,45.214844 
	C135.624298,44.901360 137.606003,46.939137 138.930511,49.407585 
	C141.189407,53.617420 139.110336,62.466927 135.278107,65.530449 
	C134.288071,66.321892 133.261734,66.726227 132.054062,66.269791 
	C130.567032,65.707779 130.219940,64.421654 130.273239,63.019043 
	C130.328201,61.572670 130.508347,60.131058 130.364136,58.562241 
	C122.997108,91.143303 100.938667,105.457527 68.969978,108.157425 
M221.101822,102.711052 
	C233.504074,101.366257 243.568268,95.815491 251.078995,85.834999 
	C258.950012,75.375771 262.622955,63.467857 262.719391,50.454868 
	C262.847961,33.104717 254.444443,21.967396 237.688950,17.934111 
	C223.634232,14.550934 209.361771,13.968630 195.137222,16.937613 
	C180.073654,20.081715 168.055679,27.341873 163.274033,42.991741 
	C158.372940,59.032612 162.921768,72.904724 174.225601,84.694901 
	C186.713394,97.720009 202.368042,103.101265 221.101822,102.711052 
M99.864815,19.562874 
	C81.431252,13.262046 62.771561,13.535696 44.441605,19.203995 
	C29.892895,23.702990 23.456743,33.742222 23.157469,48.887852 
	C22.994087,57.156086 24.279858,65.238457 27.369244,72.820412 
	C34.195007,89.572166 45.832546,101.154800 64.622299,102.538483 
	C82.976707,103.890114 98.870461,97.537956 112.006660,84.394791 
	C129.992264,66.399651 129.584610,30.933725 99.864815,19.562874 
z"/>
</svg>