<svg version="1.1" id="Layer_1" xmlns="http://www.w3.org/2000/svg" xmlns:xlink="http://www.w3.org/1999/xlink" x="0px" y="0px"
	 width="100%" viewBox="0 0 288 128" enable-background="new 0 0 288 128" xml:space="preserve">
<path fill="#000000" opacity="1.000000" stroke="none" 
	d="
M223.604614,103.022896 
	C212.985413,103.503052 202.849747,103.878822 192.825928,101.436623 
	C177.302216,97.654404 166.655396,88.760254 162.564697,72.934540 
	C160.983093,66.815750 159.783554,60.597626 158.176331,54.486198 
	C156.548599,48.296791 153.570328,46.383224 146.272186,46.325813 
	C138.459717,46.264351 135.591141,48.004292 133.818008,54.380974 
	C132.751205,58.217541 132.013443,62.154839 131.294876,66.077477 
	C127.358948,87.563187 115.486832,99.175041 93.910149,102.396454 
	C83.465347,103.955864 72.993896,103.909897 62.576214,102.130386 
	C39.703789,98.223389 24.303295,80.608139 22.805975,56.728321 
	C22.670544,54.568394 22.500910,52.384830 22.668243,50.237263 
	C22.980412,46.230862 21.410900,43.115734 17.779606,41.841183 
	C12.987327,40.159134 12.407154,36.892181 12.542267,32.509857 
	C12.803817,24.026575 12.595808,23.706354 20.719782,23.043770 
	C49.289150,20.713675 77.879539,19.144978 106.404594,23.618959 
	C114.986076,24.964914 123.441208,26.642290 130.203674,32.909164 
	C133.085861,35.580135 137.149948,35.031494 140.737366,35.292767 
	C149.726425,35.947441 158.483307,36.167728 166.204102,29.673628 
	C171.252228,25.427567 178.154984,24.790293 184.542740,23.692482 
	C205.023285,20.172665 225.666092,20.612600 246.318924,21.432442 
	C255.803802,21.808958 265.263489,22.379831 274.701904,23.473120 
	C278.288513,23.888573 279.737366,25.325829 279.411285,28.888178 
	C279.214691,31.036165 279.243256,33.226452 279.405243,35.380085 
	C279.608032,38.076035 278.679047,39.776100 276.034821,40.708996 
	C270.931549,42.509460 269.162262,46.256020 269.262146,51.604053 
	C269.516937,65.248482 265.616333,77.530609 256.338837,87.849609 
	C248.991486,96.021812 239.541092,100.145599 228.994873,102.188713 
	C227.362259,102.505013 225.709534,102.717613 223.604614,103.022896 
M99.542885,33.159550 
	C86.107231,31.483938 72.623482,31.691299 59.163464,32.512775 
	C52.675709,32.908733 46.397533,34.685566 40.434925,37.440971 
	C33.640190,40.580914 30.374580,45.937878 30.467472,53.294712 
	C30.507145,56.436932 30.843151,59.614357 31.426100,62.703781 
	C33.534653,73.878304 38.109318,83.482224 48.281433,89.773567 
	C62.535191,98.589371 78.096588,99.103951 93.644783,95.969856 
	C115.838799,91.496132 128.443604,71.380508 125.938492,46.783672 
	C125.475548,42.238129 123.336029,39.411942 119.282028,37.731277 
	C113.239372,35.226177 106.970062,33.684666 99.542885,33.159550 
M241.566452,91.070145 
	C244.671539,89.421165 247.466110,87.403625 249.945770,84.859924 
	C258.409973,76.177193 261.160278,65.563919 261.054382,53.793415 
	C260.971588,44.589085 258.550293,40.416199 250.060043,36.835609 
	C246.854431,35.483707 243.512894,34.094551 240.109467,33.630215 
	C219.522659,30.821554 198.957977,30.927778 178.628662,35.621685 
	C167.947632,38.087868 165.967590,41.009495 165.985428,51.997181 
	C165.988937,54.159813 165.993042,56.336357 166.221985,58.482475 
	C167.826981,73.527618 174.212677,85.895287 188.331635,92.349953 
	C205.769058,100.321709 223.526138,99.291115 241.566452,91.070145 
z"/>
</svg>