<svg version="1.1" id="Layer_1" xmlns="http://www.w3.org/2000/svg" xmlns:xlink="http://www.w3.org/1999/xlink" x="0px" y="0px"
	 width="100%" viewBox="0 0 288 112" enable-background="new 0 0 288 112" xml:space="preserve">
<path fill="#000000" opacity="1.000000" stroke="none" 
	d="
M205.230927,101.338715 
	C187.872711,99.100716 175.266785,90.798401 165.751251,76.416290 
	C161.398529,69.837433 158.566620,63.165829 156.514130,55.801208 
	C154.832123,49.765965 152.524033,48.350452 145.860764,48.321960 
	C139.499695,48.294758 136.801834,49.874336 135.401321,56.040340 
	C131.623535,72.672653 122.361290,85.610985 108.130173,94.327713 
	C83.087715,109.666550 46.323315,100.550072 34.696182,70.998611 
	C33.481548,67.911507 32.623711,64.611847 29.191597,63.066959 
	C28.906900,62.938816 28.587578,62.656078 28.491241,62.374409 
	C24.871128,51.789593 15.538325,44.221172 13.130716,32.957821 
	C10.439435,20.367384 14.484981,14.607619 27.344566,12.807590 
	C42.818111,10.641668 58.243431,11.731213 73.674583,13.146521 
	C87.333725,14.399303 100.706520,17.051327 113.584785,21.845259 
	C117.473328,23.292770 121.681671,24.575615 124.869827,27.056618 
	C130.438995,31.390511 136.445953,32.405006 143.106613,31.831053 
	C145.091492,31.660019 147.111542,31.686085 149.101471,31.824053 
	C155.567978,32.272396 161.152664,30.780294 166.946381,27.276722 
	C179.494705,19.688492 193.694687,16.374453 208.154587,14.431753 
	C226.338287,11.988756 244.560608,10.365494 262.903137,12.649374 
	C264.224304,12.813878 265.555511,12.948440 266.855927,13.221443 
	C278.007599,15.562594 281.249634,20.501959 279.002991,31.754944 
	C277.848053,37.539848 275.939575,42.984745 271.908813,47.500084 
	C269.214905,50.517853 267.322174,54.009567 266.031921,57.861275 
	C265.564423,59.256844 265.012299,61.037685 263.919159,61.738029 
	C259.330658,64.677734 258.243591,69.655716 255.996353,74.029831 
	C246.860977,91.811356 231.977402,100.568520 212.197052,101.371864 
	C210.035004,101.459671 207.865585,101.365746 205.230927,101.338715 
M168.369553,69.164978 
	C169.162384,71.878593 170.054871,74.499611 171.690979,76.903923 
	C185.339706,96.961349 211.910202,103.504662 233.154846,91.692863 
	C245.275040,84.954170 253.856873,74.863228 255.416031,60.919506 
	C257.303162,44.042721 245.800980,29.980673 228.695633,26.449001 
	C218.324173,24.307646 207.866501,24.780191 197.409195,26.011772 
	C188.845093,27.020382 180.679337,29.202383 173.749100,34.518833 
	C166.619659,39.988083 162.976868,47.054253 165.191376,56.292919 
	C166.159607,60.332314 167.192719,64.356163 168.369553,69.164978 
M126.404236,45.260986 
	C124.603836,40.875748 122.197052,36.993801 118.102127,34.299915 
	C112.319221,30.495569 106.138397,27.847137 99.248764,26.797302 
	C85.335976,24.677284 71.400749,23.332088 57.795486,28.120533 
	C41.957611,33.694759 32.544903,51.334892 37.570286,66.101151 
	C43.176365,82.573692 54.860981,92.842827 71.779526,96.396881 
	C89.273598,100.071823 104.193390,94.665161 116.585724,81.825897 
	C123.511276,74.650581 124.371574,65.160286 126.937599,56.290958 
	C127.942841,52.816372 127.938835,49.402161 126.404236,45.260986 
z"/>
</svg>