<svg version="1.1" id="Layer_1" xmlns="http://www.w3.org/2000/svg" xmlns:xlink="http://www.w3.org/1999/xlink" x="0px" y="0px"
	 width="100%" viewBox="0 0 288 128" enable-background="new 0 0 288 128" xml:space="preserve">
<path fill="#000000" opacity="1.000000" stroke="none" 
	d="
M207.403931,115.990356 
	C185.910980,112.460999 172.039627,100.585358 165.297852,80.358223 
	C165.035477,79.570976 164.933350,78.542076 164.378601,78.068550 
	C154.945969,70.016891 159.117035,60.622986 161.668503,51.387676 
	C161.800339,50.910458 162.051971,50.465965 162.251816,50.007969 
	C165.392914,42.809460 164.412827,41.018879 156.567490,39.348125 
	C149.568237,37.857555 142.667496,38.052040 135.885178,40.409561 
	C132.086807,41.729866 130.575134,43.707420 132.809280,47.917313 
	C135.798050,53.549171 137.430237,59.693226 137.209579,66.188095 
	C137.064819,70.448875 136.538605,74.527679 132.492004,77.138382 
	C130.965454,78.123260 130.764816,79.885239 130.278641,81.477165 
	C119.324669,117.345131 74.216286,128.061829 48.921543,100.455467 
	C42.173634,93.090881 36.045090,84.796928 33.218243,74.788078 
	C31.966669,70.356712 29.682041,67.529556 24.946278,65.861588 
	C16.781004,62.985710 13.916168,57.962528 14.691290,50.744476 
	C14.923414,48.582890 15.547374,46.824551 17.813055,46.144192 
	C27.488148,43.238857 36.001095,37.927814 44.722458,33.075367 
	C61.199585,23.907726 78.743340,22.258802 97.051750,25.134087 
	C105.452431,26.453390 113.837959,27.750004 121.892723,30.583937 
	C123.932571,31.301624 125.689949,30.939081 127.608856,29.983044 
	C140.836212,23.392876 154.201736,23.216282 167.556839,29.571468 
	C170.149216,30.805084 172.556580,30.961630 175.251556,30.082151 
	C185.768082,26.650188 196.680252,25.261772 207.620392,24.130541 
	C225.579041,22.273582 241.951019,27.104809 257.192902,36.309433 
	C262.774017,39.679874 268.493011,42.694656 274.647552,44.887032 
	C282.257812,47.597950 283.790924,56.441216 277.595886,61.993263 
	C275.350098,64.005966 272.738556,65.725632 269.828430,66.399651 
	C265.993744,67.287796 264.091736,69.751610 263.389923,73.198997 
	C261.672455,81.635529 256.320496,88.136139 251.647980,94.854225 
	C241.122208,109.988029 226.242722,116.815308 207.403931,115.990356 
M89.125710,111.772423 
	C107.232452,109.942841 124.347198,94.068420 127.567879,76.116188 
	C131.284546,55.399311 121.454918,38.665924 102.143692,33.624935 
	C90.353569,30.547253 78.368645,31.005251 66.589653,33.934860 
	C60.950314,35.337452 55.479736,37.488762 51.072674,41.582619 
	C38.548450,53.216763 36.472797,76.472908 46.588581,91.232628 
	C56.627075,105.879578 70.254959,113.205574 89.125710,111.772423 
M172.993683,88.484070 
	C174.073227,90.166016 175.119370,91.870514 176.237518,93.526405 
	C186.679352,108.990150 208.342758,116.216278 225.812439,109.749557 
	C243.117661,103.343704 253.344391,91.026817 255.558273,72.493645 
	C257.890381,52.971138 248.976578,39.438545 229.985855,34.108410 
	C218.228561,30.808485 206.169373,30.759148 194.375519,33.534103 
	C180.792328,36.730068 171.519501,45.124271 168.802231,59.218052 
	C166.908173,69.041939 167.523895,78.816803 172.993683,88.484070 
z"/>
</svg>