<svg version="1.1" id="Layer_1" xmlns="http://www.w3.org/2000/svg" xmlns:xlink="http://www.w3.org/1999/xlink" x="0px" y="0px"
	 width="100%" viewBox="0 0 288 128" enable-background="new 0 0 288 128" xml:space="preserve">
<path fill="#000000" opacity="1.000000" stroke="none" 
	d="
M71.998123,119.160454 
	C43.242741,118.049057 25.922131,102.484947 20.724970,73.565361 
	C19.274864,65.496254 18.402008,57.414619 19.606241,49.235374 
	C19.957823,46.847401 19.345154,45.369167 16.620138,45.209206 
	C14.243229,45.069672 12.204981,44.098190 12.458096,41.310795 
	C12.708781,38.550163 15.022464,37.857216 17.265205,38.056831 
	C21.056690,38.394283 22.734196,36.574158 24.350449,33.330032 
	C30.496948,20.992865 41.801353,16.479027 54.513649,14.857100 
	C72.446495,12.569097 89.719635,15.176859 105.977081,23.279455 
	C120.595787,30.565310 126.886871,39.860767 128.601105,56.789158 
	C132.586884,47.851360 135.772049,38.349155 147.596619,39.730747 
	C157.929016,40.937988 160.152603,49.897652 163.603546,58.840729 
	C163.306091,35.693966 177.432297,25.203785 195.852921,18.931700 
	C211.202408,13.705307 227.081848,12.325933 243.120193,15.956959 
	C253.837173,18.383247 262.729889,23.442657 267.616150,33.809036 
	C268.990417,36.724583 270.750458,38.198101 274.099121,38.061195 
	C276.420013,37.966305 279.093170,38.365517 279.286255,41.496552 
	C279.461945,44.345718 277.191711,44.985188 274.922729,45.259499 
	C271.699585,45.649155 272.131042,48.025623 272.214081,50.166336 
	C272.622040,60.687584 272.401917,71.141663 269.326569,81.343643 
	C263.915314,99.294609 253.406189,112.485428 234.535522,117.104118 
	C214.100815,122.105598 195.964676,117.939659 181.086533,102.262451 
	C175.489777,96.365089 171.362595,89.616402 168.330948,82.142067 
	C167.485886,80.058609 166.736923,78.287865 163.829269,78.457230 
	C161.212753,78.609650 160.283463,76.327316 159.593307,74.217255 
	C158.389130,70.535591 158.264618,66.707497 158.173355,62.875725 
	C158.034714,57.055344 156.573074,51.625957 152.604141,47.232071 
	C147.893356,42.016907 141.749954,42.582714 138.055222,48.545929 
	C135.031906,53.425461 133.028915,58.693409 133.354263,64.590500 
	C133.540344,67.963364 133.008789,71.243027 132.009262,74.437012 
	C131.460617,76.190231 130.653137,78.485458 128.630569,78.287415 
	C124.711014,77.903625 124.186539,80.515656 123.023392,83.121086 
	C113.246452,105.021240 97.200195,118.213318 71.998123,119.160454 
M116.248802,38.296776 
	C112.300957,33.673473 107.571907,30.080317 102.103630,27.420305 
	C86.628441,19.892492 70.315422,17.851957 53.488636,20.638710 
	C36.680630,23.422354 26.750053,34.159073 25.336739,50.299541 
	C24.488420,59.987579 24.965641,69.641197 27.520149,79.031792 
	C32.143120,96.026222 42.297924,108.111458 59.900879,112.270477 
	C86.624161,118.584335 112.257561,102.866104 119.755814,76.189850 
	C123.369781,63.332539 125.092804,50.697708 116.248802,38.296776 
M172.798935,78.632309 
	C175.989136,87.179047 180.829483,94.577904 187.367950,101.019295 
	C207.620819,120.971565 248.091064,117.862480 261.074524,87.871101 
	C266.475098,75.395988 267.928101,62.474602 266.369263,49.280220 
	C264.549896,33.880524 255.863754,24.443392 240.690491,21.214705 
	C221.426575,17.115580 202.874039,19.785910 185.727310,29.583567 
	C176.696594,34.743725 170.297363,42.401974 169.411072,53.304947 
	C168.731857,61.660709 169.873047,69.904480 172.798935,78.632309 
z"/>
</svg>