<svg version="1.1" id="Layer_1" xmlns="http://www.w3.org/2000/svg" xmlns:xlink="http://www.w3.org/1999/xlink" x="0px" y="0px"
	 width="100%" viewBox="0 0 288 128" enable-background="new 0 0 288 128" xml:space="preserve">
<path fill="#000000" opacity="1.000000" stroke="none" 
	d="
M196.376434,116.038521 
	C176.022476,115.587990 165.903488,104.140106 161.644562,85.875633 
	C160.779175,82.164421 159.218048,78.617477 158.014343,74.982658 
	C156.157303,69.375046 151.746552,68.198914 146.542679,68.176773 
	C141.387619,68.154846 137.436356,69.765999 135.743027,75.122673 
	C134.137360,80.202110 132.096176,85.161873 130.774384,90.309792 
	C126.235077,107.988876 114.209999,115.589859 96.756088,116.100380 
	C79.757599,116.597588 62.810902,116.708359 45.977180,113.367981 
	C36.701801,111.527420 30.436022,107.050072 28.148849,97.604210 
	C26.738922,91.781311 25.031679,86.029572 23.663914,80.197571 
	C22.553885,75.464546 20.550297,71.468796 16.283382,68.801971 
	C10.946597,65.466484 13.440283,60.103088 13.155758,55.558239 
	C12.921614,51.818150 16.322464,51.254902 18.964697,50.443295 
	C39.807758,44.040974 61.211926,43.130878 82.786606,44.152443 
	C97.091255,44.829769 111.370621,45.868759 125.431709,48.775272 
	C129.829376,49.684292 134.118851,51.130058 138.525452,51.979511 
	C145.317719,53.288841 152.174088,53.136715 158.808975,51.155899 
	C171.837189,47.266392 185.237885,45.840302 198.692947,44.812168 
	C220.522385,43.144135 242.301758,43.289349 263.870789,47.647099 
	C268.103394,48.502251 272.259888,49.751163 276.427460,50.905243 
	C279.359985,51.717308 280.599701,53.517986 280.554413,56.784740 
	C280.475677,62.464855 280.818207,67.690506 274.769226,71.380707 
	C270.644287,73.897148 270.199829,79.278336 269.307373,83.872803 
	C268.258087,89.275032 266.735626,94.527168 265.029846,99.767242 
	C262.305054,108.137550 256.168427,111.577309 248.097595,113.281433 
	C231.129547,116.864143 214.000275,116.562492 196.376434,116.038521 
M227.424774,50.371613 
	C217.930191,50.016453 208.459534,50.666992 199.012039,51.374134 
	C189.740753,52.068085 180.434952,52.715199 171.465134,55.613350 
	C166.540283,57.204578 164.587677,60.183048 165.352036,65.369865 
	C166.938919,76.138306 169.603363,86.509018 174.686096,96.239143 
	C178.165222,102.899406 183.189453,107.432938 190.642624,108.492470 
	C209.389435,111.157494 228.087555,111.054565 246.593277,106.480820 
	C250.659210,105.475914 254.089157,103.416740 255.643723,99.346260 
	C260.109924,87.651871 263.282745,75.639122 263.721985,63.046093 
	C263.896515,58.041840 261.503265,55.073727 256.546753,53.717587 
	C247.307358,51.189632 237.881912,50.626247 227.424774,50.371613 
M35.370567,92.043327 
	C37.469608,101.672256 43.439037,106.443932 53.209461,108.053322 
	C68.121674,110.509659 83.038528,110.415901 97.967033,109.473915 
	C108.547440,108.806290 116.379356,103.555550 120.709518,93.434090 
	C123.340469,87.284431 125.507462,81.018463 126.822342,74.491096 
	C129.993195,58.750401 132.092773,57.036430 112.102737,53.258308 
	C102.427963,51.429775 92.593414,51.116817 82.809319,50.660881 
	C68.021004,49.971756 53.197872,49.801388 38.664360,53.435413 
	C31.899157,55.127018 30.194590,57.380955 30.267132,64.343285 
	C30.363476,73.590012 33.567905,82.280472 35.370567,92.043327 
z"/>
</svg>