<svg version="1.1" id="Layer_1" xmlns="http://www.w3.org/2000/svg" xmlns:xlink="http://www.w3.org/1999/xlink" x="0px" y="0px"
	 width="100%" viewBox="0 0 288 128" enable-background="new 0 0 288 128" xml:space="preserve">
<path fill="#000000" opacity="1.000000" stroke="none" 
	d="
M94.296211,115.685852 
	C86.056801,116.680779 78.297188,116.620895 70.468353,115.602386 
	C55.976654,113.717041 46.007248,106.024055 39.723709,93.045555 
	C35.072216,83.438019 30.678236,73.768433 28.292280,63.276161 
	C27.293184,58.882626 26.079430,54.378544 20.012024,54.265831 
	C17.950428,54.227539 17.110792,52.128960 16.549587,50.392235 
	C15.271307,46.436436 14.170934,42.423130 12.999372,38.432865 
	C11.991453,34.999962 14.506792,34.076290 16.857540,33.137638 
	C28.964037,28.303528 41.471710,24.900963 54.337528,22.833439 
	C81.474930,18.472488 107.459091,22.101137 131.985596,34.625065 
	C141.560959,39.514511 150.641052,39.255638 160.115738,34.470947 
	C198.075226,15.301528 236.392960,18.573450 274.860260,32.905453 
	C278.771118,34.362549 280.042572,36.551010 278.562836,40.523071 
	C277.288025,43.945244 276.403076,47.510990 275.193024,50.959663 
	C274.573547,52.725216 273.497070,54.394791 271.371124,54.463093 
	C266.426575,54.621952 265.038025,58.084789 264.143951,62.003838 
	C261.794861,72.300629 257.663727,81.923615 253.185059,91.426453 
	C246.685699,105.216797 236.494141,113.883118 220.877594,115.686317 
	C203.421463,117.701920 186.919449,116.311203 172.944809,104.136925 
	C164.566559,96.838058 159.135254,87.594048 155.184616,77.352364 
	C153.986771,74.247070 152.744385,71.147202 151.297379,68.153610 
	C150.204773,65.893234 148.771851,63.525593 145.872162,63.608601 
	C143.273193,63.683002 141.806900,65.775574 140.817108,67.939484 
	C139.226379,71.417114 137.797211,74.970596 136.363922,78.517944 
	C130.497757,93.036560 121.642677,104.935921 107.126663,111.846642 
	C103.196609,113.717636 98.976982,114.720985 94.296211,115.685852 
M118.992882,40.482281 
	C107.384430,33.688183 94.356529,32.551601 81.427010,31.489862 
	C69.747070,30.530737 58.112579,31.983387 46.702736,34.511471 
	C37.254913,36.604828 34.165661,40.500080 35.328259,50.104710 
	C37.290600,66.316284 42.106453,81.661827 52.099220,94.946976 
	C53.386120,96.657875 54.954723,98.235153 56.643467,99.553192 
	C70.735023,110.551414 86.619896,109.888885 101.611214,103.581741 
	C120.948868,95.446022 127.691956,78.220840 128.852600,58.295181 
	C129.306641,50.500229 126.419479,44.705746 118.992882,40.482281 
M198.184067,106.529427 
	C201.831390,106.867233 205.472733,107.393257 209.127090,107.508987 
	C222.181503,107.922386 233.508682,104.216469 241.382553,93.092827 
	C250.152161,80.703712 254.474106,66.485619 256.573120,51.759010 
	C258.239532,40.067253 255.222382,36.595303 243.540009,34.133686 
	C228.771805,31.021843 213.892731,30.442598 198.885941,32.727203 
	C189.928680,34.090836 181.206772,35.906521 173.227280,40.414433 
	C168.064499,43.331089 163.958389,47.183567 163.295624,53.351070 
	C161.410049,70.897858 170.941818,100.109871 198.184067,106.529427 
z"/>
</svg>