<svg version="1.1" id="Layer_1" xmlns="http://www.w3.org/2000/svg" xmlns:xlink="http://www.w3.org/1999/xlink" x="0px" y="0px"
	 width="100%" viewBox="0 0 288 128" enable-background="new 0 0 288 128" xml:space="preserve">
<path fill="#000000" opacity="1.000000" stroke="none" 
	d="
M211.101898,108.099014 
	C206.308807,107.722473 201.971222,107.534798 197.689819,106.941612 
	C180.239166,104.523865 170.082886,94.135498 165.971024,77.392921 
	C165.306824,74.688438 164.387283,72.640045 161.740692,71.107529 
	C157.856674,68.858467 156.628571,64.726616 155.967957,60.497326 
	C155.316635,56.327518 154.204895,52.320351 151.354492,49.073586 
	C148.276932,45.568077 145.724518,45.631355 142.624802,49.115097 
	C139.966370,52.102879 138.986664,55.803474 138.258209,59.587227 
	C137.259979,64.772316 135.878738,69.565819 130.567657,72.274864 
	C127.933510,73.618462 128.182404,76.900963 127.474388,79.376839 
	C123.549568,93.101578 115.412758,102.654411 101.141792,105.980263 
	C91.174301,108.303200 81.022911,108.681175 70.838425,107.712624 
	C67.859566,107.429329 64.867348,107.096214 61.939220,106.500847 
	C42.923481,102.634453 31.820862,90.567459 29.808060,71.397110 
	C29.448433,67.971947 28.963814,64.907219 26.280867,62.410530 
	C24.663210,60.905170 23.966675,58.662334 23.966743,56.476208 
	C23.966894,51.525105 21.444014,48.158901 17.277937,46.197117 
	C12.309943,43.857723 13.663708,39.637131 13.694071,35.837616 
	C13.723945,32.099384 17.050972,32.193325 19.484562,31.550823 
	C37.075165,26.906668 54.864006,23.181074 73.130745,23.170033 
	C96.262657,23.156050 118.943352,26.419735 140.788986,34.381367 
	C144.507767,35.736683 148.041458,36.244747 151.945862,34.842491 
	C190.413727,21.026909 229.417358,19.826992 268.872864,30.127289 
	C270.321655,30.505507 271.888397,30.588964 273.228912,31.191051 
	C275.751038,32.323826 279.986267,31.179132 280.343201,35.296288 
	C280.717194,39.610046 281.513977,44.318649 275.915497,46.720894 
	C272.753082,48.077862 270.817047,50.894783 270.323944,54.510582 
	C269.824097,58.175716 268.925995,61.605450 266.062805,64.376106 
	C264.325012,66.057762 264.619415,68.735725 264.343506,71.013786 
	C261.799103,92.021217 249.140823,104.669823 228.031418,107.177650 
	C222.569809,107.826500 217.094604,108.304504 211.101898,108.099014 
M54.740368,37.188725 
	C49.598904,39.266205 44.743923,41.810509 41.132885,46.171597 
	C25.001030,65.654205 37.303268,97.073418 62.748291,101.644852 
	C72.355064,103.370796 82.013741,103.416267 91.628799,102.596336 
	C109.288780,101.090355 119.039528,92.818092 123.372520,75.810318 
	C124.967964,69.547920 125.402649,62.998611 126.770889,56.667500 
	C128.893250,46.846893 127.529427,43.447094 115.240097,38.772270 
	C113.384300,38.066334 111.404099,37.685337 109.478073,37.166519 
	C102.179062,35.200371 94.638489,35.025394 87.187660,34.607594 
	C76.564896,34.011925 65.862244,33.588230 54.740368,37.188725 
M169.298264,68.329330 
	C169.990936,71.748466 170.402084,75.254608 171.427200,78.570984 
	C175.007492,90.153587 181.914062,98.600754 194.350708,101.156334 
	C207.881561,103.936775 221.480148,104.106308 234.909744,100.646828 
	C251.156738,96.461571 260.960022,81.653854 259.695190,63.799438 
	C258.574036,47.973640 247.768158,37.479893 230.901688,35.174507 
	C218.396088,33.465191 205.979385,34.582371 193.570496,35.637722 
	C186.290680,36.256851 179.119949,37.844276 172.553253,41.466534 
	C168.630798,43.630207 166.828094,46.638973 166.956360,51.170238 
	C167.112991,56.703011 168.196823,62.070694 169.298264,68.329330 
z"/>
</svg>