<svg version="1.1" id="Layer_1" xmlns="http://www.w3.org/2000/svg" xmlns:xlink="http://www.w3.org/1999/xlink" x="0px" y="0px"
	 width="100%" viewBox="0 0 288 112" enable-background="new 0 0 288 112" xml:space="preserve">
<path fill="#000000" opacity="1.000000" stroke="none" 
	d="
M80.841454,110.183640 
	C54.861031,110.139259 34.196861,92.930107 29.628563,67.899925 
	C29.027636,64.607391 28.517365,61.649467 24.882812,59.787121 
	C21.474911,58.040913 21.078594,53.962673 20.975742,50.515144 
	C20.863390,46.749233 19.500881,44.373692 15.822125,43.734772 
	C13.093801,43.260921 12.367529,41.859184 12.500179,39.250286 
	C13.224026,25.014088 9.693120,27.939585 24.314295,23.967916 
	C41.849262,19.204754 59.430393,14.696150 77.890762,15.703085 
	C89.103844,16.314713 100.083717,17.732721 110.515305,22.243399 
	C116.181473,24.693478 121.121025,27.948278 124.135696,33.447708 
	C125.539513,36.008579 127.136658,36.457535 129.803314,35.599319 
	C140.777328,32.067543 151.789337,32.308086 162.738098,35.780781 
	C164.489517,36.336292 165.872696,36.595032 166.991058,34.686989 
	C174.631424,21.651514 187.915283,19.026457 201.105759,16.830982 
	C224.043030,13.013216 246.189774,17.889650 268.101288,24.088528 
	C281.473907,27.871702 279.041290,24.273508 279.384430,39.170864 
	C279.441315,41.641273 278.898529,43.206837 276.086151,43.725925 
	C273.040344,44.288109 271.275177,46.134140 271.078003,49.604271 
	C270.799622,54.503483 269.940033,59.221554 264.487122,61.504326 
	C262.310120,62.415695 262.969940,65.035736 262.593689,66.901695 
	C258.636230,86.530113 247.857407,100.680077 228.858932,107.579788 
	C207.847656,115.210510 183.500534,106.422539 171.599518,87.459778 
	C170.165436,85.174736 168.599426,83.155388 166.464661,81.449692 
	C162.031052,77.907211 161.494354,72.604713 160.762970,67.497025 
	C160.244888,63.878956 160.112503,60.206394 159.618378,56.584019 
	C158.533676,48.632221 152.969299,43.419788 145.732819,43.420090 
	C139.062607,43.420372 133.462311,48.889652 132.388443,56.596474 
	C131.929276,59.891834 131.799149,63.232807 131.347748,66.529541 
	C130.459244,73.018631 129.300415,79.212799 123.274452,83.528023 
	C120.724510,85.354050 119.476906,88.920876 117.416023,91.521057 
	C108.196335,103.153397 96.068146,109.236252 80.841454,110.183640 
M99.830154,28.672628 
	C98.862679,28.423914 97.904289,28.130009 96.926353,27.933290 
	C82.936935,25.119205 68.969360,23.167814 55.209812,29.048914 
	C40.261005,35.438328 30.358425,52.281837 33.637329,67.435074 
	C37.765778,86.514389 49.128033,99.598701 68.298378,104.887154 
	C89.764542,110.808945 118.406967,96.488304 120.392921,73.376274 
	C120.718452,69.587845 121.930878,65.884262 122.471748,62.104031 
	C123.872978,52.310555 123.290016,43.024273 114.637878,36.289749 
	C110.414619,33.002499 105.921501,30.143217 99.830154,28.672628 
M259.324097,59.040535 
	C255.921204,43.411198 247.779907,31.624777 231.696335,27.355501 
	C215.342361,23.014452 199.159332,24.997688 183.976852,32.086792 
	C173.277802,37.082447 167.331070,45.767105 169.276489,58.309212 
	C170.192795,64.216599 171.363266,70.084229 172.310272,75.987244 
	C174.548630,89.939705 184.143661,97.969635 196.020874,102.752518 
	C226.085114,114.859230 257.771912,93.112946 259.324097,59.040535 
z"/>
</svg>