<svg version="1.1" id="Layer_1" xmlns="http://www.w3.org/2000/svg" xmlns:xlink="http://www.w3.org/1999/xlink" x="0px" y="0px"
	 width="100%" viewBox="0 0 288 128" enable-background="new 0 0 288 128" xml:space="preserve">
<path fill="#000000" opacity="1.000000" stroke="none" 
	d="
M227.649506,105.842941 
	C212.009644,106.504829 196.905869,106.204987 181.891220,103.494652 
	C175.530289,102.346413 171.436172,99.322205 169.376495,93.002037 
	C166.180878,83.196190 162.636902,73.495827 158.960632,63.857552 
	C156.603348,57.677311 153.383026,55.826244 146.630417,55.942051 
	C141.003265,56.038555 136.732132,57.971462 134.785858,63.867615 
	C131.657166,73.345772 128.054367,82.668144 124.963852,92.157951 
	C122.766380,98.905518 118.540833,102.461235 111.456718,103.601341 
	C88.041397,107.369774 64.710693,106.884331 41.362198,103.170219 
	C36.003723,102.317833 32.682854,99.555222 31.337547,94.201698 
	C28.985731,84.842857 26.234125,75.580055 24.073956,66.179596 
	C23.188828,62.327774 21.578182,59.444160 18.300161,57.312057 
	C13.597359,54.253254 10.900244,50.158947 12.231357,44.258911 
	C13.607178,38.160702 17.892546,35.595249 23.686632,34.815498 
	C45.415806,31.891272 67.234459,32.641655 89.041656,33.295765 
	C96.521774,33.520130 103.987579,34.216778 111.460403,34.690128 
	C117.790421,35.091087 123.069580,37.496742 126.774208,42.810459 
	C128.356155,45.079517 130.460556,45.911335 133.186218,45.882942 
	C142.347794,45.787487 151.510681,45.809067 160.673065,45.809345 
	C162.756485,45.809410 164.765350,45.499939 166.017151,43.683022 
	C171.234222,36.110806 179.089188,34.567841 187.471069,34.039791 
	C214.600296,32.330681 241.714859,32.056885 268.806122,34.710354 
	C272.329956,35.055500 275.755005,35.733727 278.417480,38.346897 
	C283.636963,43.469707 283.523254,51.550846 277.379272,55.759495 
	C272.230469,59.286415 269.982513,63.658634 268.945282,69.599205 
	C267.459656,78.107887 264.804016,86.374504 262.316772,94.667763 
	C260.742432,99.917191 257.367096,102.182213 252.421432,103.179886 
	C244.394989,104.799049 236.257645,105.279739 227.649506,105.842941 
M174.027969,85.488853 
	C175.506699,93.401978 180.548386,96.579849 188.311249,97.387634 
	C208.269547,99.464455 228.147110,99.329872 248.012558,96.563286 
	C252.037369,96.002754 254.465302,93.811546 255.717209,89.821762 
	C259.807587,76.785797 262.622009,63.476185 264.602417,49.984894 
	C265.387634,44.635696 263.553802,42.266788 257.997437,41.507576 
	C253.066422,40.833817 248.079910,40.367809 243.106659,40.236828 
	C224.640213,39.750462 206.184219,39.808414 187.741547,41.265293 
	C176.081558,42.186375 170.577164,47.584934 170.039261,59.249889 
	C169.635712,68.000862 170.924637,76.485832 174.027969,85.488853 
M35.150135,79.464401 
	C36.266155,83.119316 37.402012,86.768318 38.492573,90.430817 
	C39.562412,94.023735 42.001030,95.950691 45.651047,96.469765 
	C67.209465,99.535591 88.771553,99.874321 110.319504,96.429092 
	C113.327827,95.948105 116.017387,94.844460 117.426865,91.647484 
	C122.355820,80.467529 124.822502,68.846855 123.591797,56.635746 
	C122.657753,47.368099 117.285873,42.285519 108.011391,41.404884 
	C105.194077,41.137371 102.368065,40.930584 99.541229,40.799278 
	C78.743210,39.833218 57.942402,39.109180 37.176460,41.348057 
	C30.297819,42.089680 28.282684,44.650536 29.497192,51.267490 
	C31.178101,60.425522 33.098717,69.539558 35.150135,79.464401 
z"/>
</svg>